# xmcd
#
# Track frame offsets:
#	150
#	23703
#	46579
#	62023
#	78075
#	95097
#	103459
#	112819
#	120053
#	130171
#	157607
#	169800
#
# Disc length: 2523 seconds
#
# Revision: 1
# Processed by: cddbd v1.5.2PL0 Copyright (c) Steve Scherf et al.
# Submitted via: audiograbber 1.83.01
#
DISCID=8209d90c
DTITLE=Scott Tuma - Not For Nobody
DYEAR=2008
DGENRE=Alternative Rock
TTITLE0=Nobody (River Of Tin)
TTITLE1=Fishen
TTITLE2=Eloper
TTITLE3=Tiktaalik
TTITLE4=Newjoy
TTITLE5=Cimbal
TTITLE6=Jason
TTITLE7=Loversrock 1
TTITLE8=Moccasoclea
TTITLE9=Rakes
TTITLE10=Heeler
TTITLE11=Reprieved
EXTD=
EXTT0=
EXTT1=
EXTT2=
EXTT3=
EXTT4=
EXTT5=
EXTT6=
EXTT7=
EXTT8=
EXTT9=
EXTT10=
EXTT11=
PLAYORDER=
